<?xml version="1.0"?>
<svg xmlns="http://www.w3.org/2000/svg" xmlns:xlink="http://www.w3.org/1999/xlink" height="380.456" viewBox="0 0 489.701 380.456" width="489.701">
  <linearGradient id="a" gradientUnits="userSpaceOnUse" x1="34.571" x2="505.94" y1="104.371" y2="296.831">
    <stop offset=".01" stop-color="#f9e79b"/>
    <stop offset="1" stop-color="#3ade9e"/>
  </linearGradient>
  <rect fill="url(#a)" height="212.584" rx="10" transform="matrix(.89958065 -.43675469 .43675469 .89958065 -58.495 126.043)" width="448.627" x="20.537" y="83.936"/>
  <g fill="#fff9e7">
    <path d="m55.624 262.829c-.441 0-.884-.073-1.309-.221-1.003-.347-1.826-1.078-2.29-2.032l-19.902-40.992c-.463-.954-.528-2.054-.181-3.056.347-1.003 1.078-1.826 2.032-2.29l40.992-19.901c1.989-.962 4.381-.136 5.346 1.852l19.901 40.991c.965 1.987.136 4.381-1.852 5.346l-40.991 19.902c-.55.267-1.147.401-1.747.401zm-14.557-43.141 16.408 33.795 33.794-16.408-16.407-33.794z"/>
    <path d="m92.623 339.029c-1.484 0-2.909-.829-3.602-2.254l-19.902-40.991c-.965-1.987-.136-4.381 1.852-5.346l40.991-19.902c1.989-.961 4.38-.135 5.346 1.852l19.902 40.991c.965 1.987.136 4.381-1.852 5.346l-40.991 19.902c-.563.272-1.158.402-1.744.402zm-14.56-43.141 16.408 33.794 33.794-16.408-16.408-33.794z"/>
    <path d="m102.736 201.966c-1.484 0-2.909-.829-3.602-2.254-.965-1.987-.136-4.381 1.852-5.346l262.351-127.375c1.988-.962 4.381-.136 5.346 1.852s.136 4.381-1.852 5.346l-262.35 127.375c-.563.272-1.158.402-1.744.402z"/>
    <path d="m112.688 222.462c-1.484 0-2.909-.829-3.602-2.254-.965-1.987-.136-4.381 1.852-5.346l140.432-68.182c1.988-.962 4.381-.136 5.346 1.852s.136 4.381-1.852 5.346l-140.432 68.182c-.563.272-1.158.402-1.744.402z"/>
    <path d="m139.732 278.165c-1.484 0-2.909-.829-3.602-2.254-.965-1.987-.136-4.381 1.852-5.346l191.869-93.155c1.989-.963 4.38-.135 5.346 1.852.965 1.987.136 4.381-1.852 5.346l-191.869 93.155c-.563.272-1.158.402-1.744.402z"/>
    <path d="m149.683 298.662c-1.484 0-2.909-.829-3.602-2.254-.965-1.987-.136-4.381 1.852-5.346l191.87-93.155c1.989-.963 4.38-.135 5.346 1.852.965 1.987.136 4.381-1.852 5.346l-191.87 93.155c-.563.272-1.158.402-1.744.402z"/>
    <path d="m118.073 314.069c-.679 0-1.356-.173-1.966-.517l-23.625-13.329c-1.924-1.085-2.604-3.524-1.518-5.449 1.085-1.924 3.526-2.603 5.449-1.518l18.588 10.487 5.244-33.975c.336-2.184 2.374-3.679 4.563-3.343 2.183.337 3.68 2.38 3.343 4.563l-6.126 39.689c-.2 1.298-1.024 2.414-2.206 2.988-.553.268-1.15.401-1.747.401z"/>
  </g>
  <path d="m358.815 181.992c-2.495 0-4.912-1.022-7.043-3.025-5.355-5.034-8.534-16.17-8.939-28.078-14.542 2.714-22.666 13.912-22.754 14.035-1.278 1.797-3.772 2.226-5.571.954-1.801-1.271-2.236-3.755-.971-5.559.448-.64 10.616-14.84 29.453-17.569.396-5.394 1.381-10.7 3.01-15.433 4.246-12.346 12.436-19.683 23.059-20.661.513-.048 1.022-.054 1.533-.022.778-4.349 2.026-8.14 3.835-10.847 3.332-4.99 8.431-6.584 13.991-4.366 3.459 1.379 6.702 4.366 9.579 8.111 2.441-4.347 6.589-8.905 13.612-12.316 1.988-.962 4.381-.136 5.346 1.852s.136 4.381-1.852 5.346c-6.313 3.065-10.315 7.555-11.898 13.347 4.559 8.596 7.32 17.942 7.146 21.633-.172 3.648-2.646 4.653-3.4 4.874-3.66 1.072-6.277-2.625-7.539-4.401-3.08-4.339-5.907-12.132-4.644-20.771-2.799-4.828-6.077-8.952-9.313-10.242-2.057-.82-3.174-.457-4.419 1.443-1.492 2.277-2.437 5.779-2.958 9.847 3.168 2.912 5.932 7.543 7.98 13.578 3.581 10.547 4.367 23.833-2.367 28.08-2.386 1.504-5.285 1.084-7.389-1.075-4.367-4.484-7.417-21.453-6.608-36.094-7.464.728-12.891 5.87-16.13 15.288-1.378 4.005-2.197 8.291-2.571 12.564 11.506 1.266 19.574 10.222 21.615 19.047 2.022 8.742-1.8 16.279-9.974 19.67-1.275.529-2.558.791-3.819.791zm-8.021-31.445c.375 10.357 3.108 19.442 6.457 22.591 1.21 1.134 1.851.868 2.317.675 6.089-2.526 5.9-7.649 5.246-10.479-1.353-5.848-6.758-11.623-14.021-12.787zm26.901-26.389c.373 7.264 1.494 14.2 2.848 18.106.531-3.337.221-9.256-2.06-15.973-.253-.746-.517-1.457-.788-2.134z" fill="#f9e79b"/>
</svg>
